<svg width="87" height="30" viewBox="0 0 87 30" fill="none" xmlns="http://www.w3.org/2000/svg">
<g clip-path="url(#clip0_0_3)">
<rect width="87" height="30" fill="#FF7777"/>
<path d="M46.688 14.36C47.664 14.568 48.448 15.056 49.04 15.824C49.632 16.576 49.928 17.44 49.928 18.416C49.928 19.824 49.432 20.944 48.44 21.776C47.464 22.592 46.096 23 44.336 23H36.488V6.152H44.072C45.784 6.152 47.12 6.544 48.08 7.328C49.056 8.112 49.544 9.176 49.544 10.52C49.544 11.512 49.28 12.336 48.752 12.992C48.24 13.648 47.552 14.104 46.688 14.36ZM40.592 12.968H43.28C43.952 12.968 44.464 12.824 44.816 12.536C45.184 12.232 45.368 11.792 45.368 11.216C45.368 10.64 45.184 10.2 44.816 9.896C44.464 9.592 43.952 9.44 43.28 9.44H40.592V12.968ZM43.616 19.688C44.304 19.688 44.832 19.536 45.2 19.232C45.584 18.912 45.776 18.456 45.776 17.864C45.776 17.272 45.576 16.808 45.176 16.472C44.792 16.136 44.256 15.968 43.568 15.968H40.592V19.688H43.616Z" fill="white"/>
</g>
<defs>
<clipPath id="clip0_0_3">
<rect width="87" height="30" fill="white"/>
</clipPath>
</defs>
</svg>