<svg width="84" height="21" viewBox="0 0 84 21" fill="none" xmlns="http://www.w3.org/2000/svg">
<path d="M10.688 11.36C11.664 11.568 12.448 12.056 13.04 12.824C13.632 13.576 13.928 14.44 13.928 15.416C13.928 16.824 13.432 17.944 12.44 18.776C11.464 19.592 10.096 20 8.336 20H0.488V3.152H8.072C9.784 3.152 11.12 3.544 12.08 4.328C13.056 5.112 13.544 6.176 13.544 7.52C13.544 8.512 13.28 9.336 12.752 9.992C12.24 10.648 11.552 11.104 10.688 11.36ZM4.592 9.968H7.28C7.952 9.968 8.464 9.824 8.816 9.536C9.184 9.232 9.368 8.792 9.368 8.216C9.368 7.64 9.184 7.2 8.816 6.896C8.464 6.592 7.952 6.44 7.28 6.44H4.592V9.968ZM7.616 16.688C8.304 16.688 8.832 16.536 9.2 16.232C9.584 15.912 9.776 15.456 9.776 14.864C9.776 14.272 9.576 13.808 9.176 13.472C8.792 13.136 8.256 12.968 7.568 12.968H4.592V16.688H7.616ZM21.8523 5.216C21.1323 5.216 20.5403 5.008 20.0763 4.592C19.6283 4.16 19.4043 3.632 19.4043 3.008C19.4043 2.368 19.6283 1.84 20.0763 1.424C20.5403 0.991999 21.1323 0.775999 21.8523 0.775999C22.5563 0.775999 23.1323 0.991999 23.5803 1.424C24.0443 1.84 24.2763 2.368 24.2763 3.008C24.2763 3.632 24.0443 4.16 23.5803 4.592C23.1323 5.008 22.5563 5.216 21.8523 5.216ZM23.8923 6.608V20H19.7883V6.608H23.8923ZM47.4344 6.464C49.0984 6.464 50.4184 6.968 51.3944 7.976C52.3864 8.984 52.8824 10.384 52.8824 12.176V20H48.8024V12.728C48.8024 11.864 48.5704 11.2 48.1064 10.736C47.6584 10.256 47.0344 10.016 46.2344 10.016C45.4344 10.016 44.8024 10.256 44.3384 10.736C43.8904 11.2 43.6664 11.864 43.6664 12.728V20H39.5864V12.728C39.5864 11.864 39.3544 11.2 38.8904 10.736C38.4424 10.256 37.8184 10.016 37.0184 10.016C36.2184 10.016 35.5864 10.256 35.1224 10.736C34.6744 11.2 34.4504 11.864 34.4504 12.728V20H30.3464V6.608H34.4504V8.288C34.8664 7.728 35.4104 7.288 36.0824 6.968C36.7544 6.632 37.5144 6.464 38.3624 6.464C39.3704 6.464 40.2664 6.68 41.0504 7.112C41.8504 7.544 42.4744 8.16 42.9224 8.96C43.3864 8.224 44.0184 7.624 44.8184 7.16C45.6184 6.696 46.4904 6.464 47.4344 6.464ZM58.4167 13.28C58.4167 11.904 58.6727 10.696 59.1847 9.656C59.7127 8.616 60.4247 7.816 61.3207 7.256C62.2167 6.696 63.2167 6.416 64.3207 6.416C65.2647 6.416 66.0887 6.608 66.7927 6.992C67.5127 7.376 68.0647 7.88 68.4487 8.504V6.608H72.5527V20H68.4487V18.104C68.0487 18.728 67.4887 19.232 66.7687 19.616C66.0647 20 65.2407 20.192 64.2967 20.192C63.2087 20.192 62.2167 19.912 61.3207 19.352C60.4247 18.776 59.7127 17.968 59.1847 16.928C58.6727 15.872 58.4167 14.656 58.4167 13.28ZM68.4487 13.304C68.4487 12.28 68.1607 11.472 67.5847 10.88C67.0247 10.288 66.3367 9.992 65.5207 9.992C64.7047 9.992 64.0087 10.288 63.4327 10.88C62.8727 11.456 62.5927 12.256 62.5927 13.28C62.5927 14.304 62.8727 15.12 63.4327 15.728C64.0087 16.32 64.7047 16.616 65.5207 16.616C66.3367 16.616 67.0247 16.32 67.5847 15.728C68.1607 15.136 68.4487 14.328 68.4487 13.304ZM83.1057 2.24V20H79.0017V2.24H83.1057Z" fill="#111111"/>
</svg>
